<mxfile host="app.diagrams.net" modified="2021-10-27T10:04:23.522Z" agent="5.0 (Windows NT 10.0; Win64; x64) AppleWebKit/537.36 (KHTML, like Gecko) Chrome/80.0.3987.106 Safari/537.36" etag="NkLnvSMuy20eUUxOfH7I" version="15.5.9" type="github">
  <diagram id="C5RBs43oDa-KdzZeNtuy" name="Page-1">
    <mxGraphModel dx="868" dy="490" grid="1" gridSize="10" guides="1" tooltips="1" connect="1" arrows="1" fold="1" page="1" pageScale="1" pageWidth="827" pageHeight="1169" math="0" shadow="0">
      <root>
        <mxCell id="WIyWlLk6GJQsqaUBKTNV-0" />
        <mxCell id="WIyWlLk6GJQsqaUBKTNV-1" parent="WIyWlLk6GJQsqaUBKTNV-0" />
        <mxCell id="J4XAur9ocivviGG2_gKd-9" style="edgeStyle=orthogonalEdgeStyle;rounded=0;orthogonalLoop=1;jettySize=auto;html=1;" edge="1" parent="WIyWlLk6GJQsqaUBKTNV-1" source="J4XAur9ocivviGG2_gKd-1">
          <mxGeometry relative="1" as="geometry">
            <mxPoint x="260" y="140" as="targetPoint" />
          </mxGeometry>
        </mxCell>
        <mxCell id="J4XAur9ocivviGG2_gKd-1" value="Star" style="strokeWidth=2;html=1;shape=mxgraph.flowchart.terminator;whiteSpace=wrap;" vertex="1" parent="WIyWlLk6GJQsqaUBKTNV-1">
          <mxGeometry x="190" y="40" width="140" height="60" as="geometry" />
        </mxCell>
        <mxCell id="J4XAur9ocivviGG2_gKd-15" style="edgeStyle=orthogonalEdgeStyle;rounded=0;orthogonalLoop=1;jettySize=auto;html=1;" edge="1" parent="WIyWlLk6GJQsqaUBKTNV-1" source="J4XAur9ocivviGG2_gKd-2">
          <mxGeometry relative="1" as="geometry">
            <mxPoint x="260.5" y="360" as="targetPoint" />
          </mxGeometry>
        </mxCell>
        <mxCell id="J4XAur9ocivviGG2_gKd-2" value="Bagi bilangan dengan 2&lt;br&gt;menggunakan modulus" style="rounded=1;whiteSpace=wrap;html=1;absoluteArcSize=1;arcSize=14;strokeWidth=2;" vertex="1" parent="WIyWlLk6GJQsqaUBKTNV-1">
          <mxGeometry x="187" y="243" width="147" height="67" as="geometry" />
        </mxCell>
        <mxCell id="J4XAur9ocivviGG2_gKd-10" style="edgeStyle=orthogonalEdgeStyle;rounded=0;orthogonalLoop=1;jettySize=auto;html=1;" edge="1" parent="WIyWlLk6GJQsqaUBKTNV-1" source="J4XAur9ocivviGG2_gKd-3">
          <mxGeometry relative="1" as="geometry">
            <mxPoint x="260" y="240" as="targetPoint" />
          </mxGeometry>
        </mxCell>
        <mxCell id="J4XAur9ocivviGG2_gKd-3" value="masukan angka" style="shape=parallelogram;html=1;strokeWidth=2;perimeter=parallelogramPerimeter;whiteSpace=wrap;rounded=1;arcSize=12;size=0.23;" vertex="1" parent="WIyWlLk6GJQsqaUBKTNV-1">
          <mxGeometry x="185" y="140" width="150" height="50" as="geometry" />
        </mxCell>
        <mxCell id="J4XAur9ocivviGG2_gKd-16" style="edgeStyle=orthogonalEdgeStyle;rounded=0;orthogonalLoop=1;jettySize=auto;html=1;" edge="1" parent="WIyWlLk6GJQsqaUBKTNV-1" source="J4XAur9ocivviGG2_gKd-11">
          <mxGeometry relative="1" as="geometry">
            <mxPoint x="261" y="490" as="targetPoint" />
          </mxGeometry>
        </mxCell>
        <mxCell id="J4XAur9ocivviGG2_gKd-20" style="edgeStyle=orthogonalEdgeStyle;rounded=0;orthogonalLoop=1;jettySize=auto;html=1;" edge="1" parent="WIyWlLk6GJQsqaUBKTNV-1" source="J4XAur9ocivviGG2_gKd-11">
          <mxGeometry relative="1" as="geometry">
            <mxPoint x="390" y="405" as="targetPoint" />
          </mxGeometry>
        </mxCell>
        <mxCell id="J4XAur9ocivviGG2_gKd-11" value="Apakah sisa&amp;nbsp;bagi=0" style="strokeWidth=2;html=1;shape=mxgraph.flowchart.decision;whiteSpace=wrap;" vertex="1" parent="WIyWlLk6GJQsqaUBKTNV-1">
          <mxGeometry x="186" y="360" width="150" height="90" as="geometry" />
        </mxCell>
        <mxCell id="J4XAur9ocivviGG2_gKd-19" style="edgeStyle=orthogonalEdgeStyle;rounded=0;orthogonalLoop=1;jettySize=auto;html=1;" edge="1" parent="WIyWlLk6GJQsqaUBKTNV-1" source="J4XAur9ocivviGG2_gKd-17">
          <mxGeometry relative="1" as="geometry">
            <mxPoint x="261" y="590" as="targetPoint" />
          </mxGeometry>
        </mxCell>
        <mxCell id="J4XAur9ocivviGG2_gKd-17" value="Angka Ganjil" style="shape=parallelogram;html=1;strokeWidth=2;perimeter=parallelogramPerimeter;whiteSpace=wrap;rounded=1;arcSize=12;size=0.23;" vertex="1" parent="WIyWlLk6GJQsqaUBKTNV-1">
          <mxGeometry x="186" y="490" width="150" height="60" as="geometry" />
        </mxCell>
        <mxCell id="J4XAur9ocivviGG2_gKd-18" value="Selesai" style="strokeWidth=2;html=1;shape=mxgraph.flowchart.start_1;whiteSpace=wrap;" vertex="1" parent="WIyWlLk6GJQsqaUBKTNV-1">
          <mxGeometry x="211" y="592" width="100" height="60" as="geometry" />
        </mxCell>
        <mxCell id="J4XAur9ocivviGG2_gKd-23" style="edgeStyle=orthogonalEdgeStyle;rounded=0;orthogonalLoop=1;jettySize=auto;html=1;entryX=0.79;entryY=0.133;entryDx=0;entryDy=0;entryPerimeter=0;" edge="1" parent="WIyWlLk6GJQsqaUBKTNV-1">
          <mxGeometry relative="1" as="geometry">
            <mxPoint x="504.75" y="400" as="sourcePoint" />
            <mxPoint x="282" y="589.98" as="targetPoint" />
            <Array as="points">
              <mxPoint x="542" y="400" />
              <mxPoint x="542" y="559" />
              <mxPoint x="282" y="559" />
            </Array>
          </mxGeometry>
        </mxCell>
        <mxCell id="J4XAur9ocivviGG2_gKd-21" value="Angka Genap" style="shape=parallelogram;html=1;strokeWidth=2;perimeter=parallelogramPerimeter;whiteSpace=wrap;rounded=1;arcSize=12;size=0.23;" vertex="1" parent="WIyWlLk6GJQsqaUBKTNV-1">
          <mxGeometry x="380" y="380" width="150" height="60" as="geometry" />
        </mxCell>
      </root>
    </mxGraphModel>
  </diagram>
</mxfile>
